<svg id="LogoHB_Spelled" xmlns="http://www.w3.org/2000/svg" width="115.896" height="16.696" viewBox="0 0 115.896 16.696">
  <g id="Group_2429" data-name="Group 2429" transform="translate(-3)">
    <path id="Path_84748" data-name="Path 84748" d="M10.508,0V6.407h-6.5V0H0V16.7H4.011V9.725h6.5V16.7h4.011V0Z" transform="translate(3)" fill="#fc3894"/>
    <path id="Path_84749" data-name="Path 84749" d="M329.341,0V6.407h-6.5V0h-4.011V16.7h4.011V9.725h6.5V16.7h4.011V0Z" transform="translate(-242.195)" fill="#fc3894"/>
    <path id="Path_84750" data-name="Path 84750" d="M78.023,0V16.7H89.542V13.379H81.694V9.748H88.63V6.664H81.694V3.318h7.43V0Z" transform="translate(-57.002)" fill="#fc3894"/>
    <path id="Path_84751" data-name="Path 84751" d="M139.79,4.347h.047l2.1,5.9h-4.326ZM137.966,0l-7.03,16.7h4.411l1.31-3.256H142.9l1.263,3.256h4.5L141.731,0Z" transform="translate(-97.697)" fill="#fc3894"/>
    <path id="Path_84752" data-name="Path 84752" d="M213.984,0V16.7h10.423V13.148h-6.29V0Z" transform="translate(-161.563)" fill="#fc3894"/>
    <path id="Path_84753" data-name="Path 84753" d="M253.114,0V3.318h4.773V16.7h3.9V3.318h4.542V0Z" transform="translate(-191.656)" fill="#fc3894"/>
    <g id="Group_2309" data-name="Group 2309" transform="translate(93.249 0.108)">
      <g id="Group_2428" data-name="Group 2428" transform="translate(-0.001 0)">
        <path id="Path_47677" data-name="Path 47677" d="M391.253,16.618q1.11-.892,2.219-1.785,1.7-1.377,3.407-2.755l1.7-1.378a.926.926,0,0,0,.184-.169.943.943,0,0,0-.148-.161,23.65,23.65,0,0,1-3.872-5.064c-.387-.672-.722-1.385-1.046-2.076-.137-.291-.274-.583-.415-.872a.908.908,0,0,1-.079-.3.493.493,0,0,1,.663-.538,15.892,15.892,0,0,1,3.162,1.466,20.716,20.716,0,0,1,4.987,3.97,13.075,13.075,0,0,1,1.187,1.594c.118.181.173.146.306.059a.783.783,0,0,1,.141-.077c.042-.016.093-.042.1-.076.017-.051-.047-.157-.067-.192a15.048,15.048,0,0,0-3.656-3.9.823.823,0,0,1-.354-.631,21.164,21.164,0,0,1-.023-3.266h-8.9V16.933h.108Z" transform="translate(-390.754 -0.475)" fill="#fc3894"/>
        <path id="Path_47678" data-name="Path 47678" d="M409.934.475a19.577,19.577,0,0,1,2.13,3.067,20.572,20.572,0,0,1,1.744,3.841c.033.1.06.112.063.113s.032.008.123-.061l.274-.21c.527-.4,1.072-.819,1.625-1.207a3.62,3.62,0,0,1,4.07.112,1.19,1.19,0,0,0,.536.2c.611.053,1.234.094,1.836.133.34.022.68.044,1.019.069s.683.055,1.025.085l.542.048,0,.231-.475.027c-.3.017-.6.034-.9.054-1.043.07-2.085.14-3.127.218-.115.009-.206.053-.271.24a11.829,11.829,0,0,1-4.678,6.367,10.72,10.72,0,0,1-3.588,1.458,18.028,18.028,0,0,1-3.011.3l-.59.027a19.624,19.624,0,0,0-2.763.355,24.394,24.394,0,0,0-2.673.7c-.291.092-.581.188-.871.287h23.055V.475Z" transform="translate(-399.387 -0.475)" fill="#fc3894"/>
      </g>
    </g>
  </g>
</svg>
